<svg width="23" height="24" viewBox="0 0 23 24" fill="none" xmlns="http://www.w3.org/2000/svg">
    <path opacity="" fill-rule="evenodd" clip-rule="evenodd" d="M6.5976 5.75585C6.5975 5.75043 6.59746 5.74501 6.59746 5.73958V4.53125C6.59746 2.02871 8.62616 0 11.1287 0C13.6313 0 15.66 2.02871 15.66 4.53125V5.73958C15.66 5.74502 15.66 5.75043 15.6598 5.75585C17.2274 5.7997 18.1824 5.96183 18.9134 6.56121C19.9157 7.38286 20.1947 8.77782 20.7526 11.5677L21.4776 15.1927C22.2801 19.2049 22.6813 21.211 21.5936 22.5378C20.5059 23.8646 18.46 23.8646 14.3685 23.8646H7.88892C3.79729 23.8646 1.75148 23.8646 0.663766 22.5378C-0.423939 21.211 -0.0227241 19.2049 0.779718 15.1927L1.50472 11.5677C2.0627 8.77782 2.34169 7.38286 3.34392 6.56121C4.07507 5.96182 5.02992 5.7997 6.5976 5.75585ZM8.40996 4.53125C8.40996 3.02973 9.62723 1.8125 11.1287 1.8125C12.6302 1.8125 13.8475 3.02973 13.8475 4.53125V5.73958C13.7803 5.73957 13.7122 5.73958 13.6435 5.73958H8.61392C8.54511 5.73958 8.47713 5.73958 8.40996 5.73959V4.53125ZM11.1292 18.125C9.94683 18.125 8.93848 17.3698 8.56488 16.3126C8.39809 15.8406 7.88032 15.5933 7.40843 15.7602C6.93653 15.9269 6.68919 16.4447 6.85598 16.9165C7.47759 18.6753 9.15477 19.9375 11.1292 19.9375C13.1035 19.9375 14.7808 18.6753 15.4023 16.9165C15.5691 16.4447 15.3217 15.9269 14.8499 15.7602C14.378 15.5933 13.8603 15.8406 13.6934 16.3126C13.3198 17.3698 12.3115 18.125 11.1292 18.125Z" fill="#FFF"/>
</svg>
